# xmcd
#
# Track frame offsets: 
#        150
#        9855
#        29166
#        47310
#        66025
#        79438
#        99604
#        118297
#        137225
#        144781
#        184327
#        209206
#
# Disc length: 3143 seconds
#
# Revision: 0
# Processed by: cddbd v1.5.2PL0 Copyright (c) Steve Scherf et al.
# Submitted via: ExactAudioCopy v0.99pb5
#
DISCID=b10c450c
DTITLE=White Shoes and The Couples Company - White Shoes and The Couples C
DTITLE=ompany
DYEAR=2005
DGENRE=Retro
TTITLE0=Simple Overture
TTITLE1=Nothing to Fear
TTITLE2=Tentang Cita
TTITLE3=Windu and Defrina
TTITLE4=Runaway Song
TTITLE5=Sunday Memory Lane
TTITLE6=Brother John
TTITLE7=Senandung Maaf
TTITLE8=Senja
TTITLE9=Nothing to Fear (woodwind version)
TTITLE10=Topstar
TTITLE11=Senandung Maaf
EXTD=
EXTT0=
EXTT1=
EXTT2=
EXTT3=
EXTT4=
EXTT5=
EXTT6=
EXTT7=
EXTT8=
EXTT9=
EXTT10=
EXTT11=
PLAYORDER=
